<svg
  t="1743689673053"
  class="icon"
  viewBox="0 0 1024 1024"
  version="1.1"
  xmlns="http://www.w3.org/2000/svg"
  p-id="2678"
  width="200"
  height="200"
>
  <path
    d="M857.07264 155.96032a121.85088 121.85088 0 0 0-26.17856-2.85696H193.10592c-8.99072 0-17.74592 1.00352-26.17856 2.85696C109.90592 165.95968 66.56 215.69024 66.56 275.57888v473.83552c0 67.09248 54.38976 121.48224 121.48224 121.48224h647.9104c67.09248 0 121.48224-54.38976 121.48224-121.48224V275.57888c0.00512-59.88864-43.3408-109.6192-100.36224-119.61856z m-31.31392 68.99712l-265.4464 247.38816c-13.16352 12.26752-30.32064 19.0208-48.31232 19.0208s-35.1488-6.7584-48.31232-19.02592L198.24128 224.95744h627.51744z m60.81536 524.45184c0 27.90912-22.7072 50.61632-50.61632 50.61632H188.04224c-27.90912 0-50.61632-22.7072-50.61632-50.61632V275.57888c0-3.27168 0.33792-6.45632 0.93184-9.55904l277.01248 258.16576c27.2128 25.36448 61.92128 38.04672 96.62976 38.04672s69.41696-12.68224 96.62976-38.04672l277.01248-258.16576c0.59392 3.0976 0.93184 6.28736 0.93184 9.55904v473.8304z"
    p-id="2679"
  ></path>
</svg>