<?xml version="1.0" standalone="no"?><!DOCTYPE svg PUBLIC "-//W3C//DTD SVG 1.1//EN" "http://www.w3.org/Graphics/SVG/1.1/DTD/svg11.dtd"><svg t="1741588799799" class="icon" viewBox="0 0 1024 1024" version="1.1" xmlns="http://www.w3.org/2000/svg" p-id="2195" xmlns:xlink="http://www.w3.org/1999/xlink" width="200" height="200"><path d="M857.69576 393.52c-1.6-35.2 3.2-66.4-12.8-92.8-38.4-65.6-134.4-104-326.4-104v5.6h-4 4v-5.6c-192 0-292.8 38.4-331.2 104.8-15.2 27.2-13.6 57.6-16 92.8-1.6 28-14.4 57.6-8.8 89.6 6.4 41.6 8.8 83.2 15.2 121.6 4.8 31.2 48 57.6 52 87.2 11.2 81.6 96 119.2 288 119.2v6.4h-4.8 5.6v-6.4c192 0 273.6-37.6 284-119.2 4-30.4 44-56 48.8-87.2 6.4-38.4 8.8-80 15.2-121.6 5.6-32-7.2-62.4-8.8-90.4z" fill="#EFCCA3" p-id="2196"></path><path d="M515.29576 422.32c34.4 0.8 58.4 22.4 80.8 42.4 26.4 23.2 71.2 39.2 89.6 59.2s42.4 40 51.2 71.2 11.2 71.2 11.2 81.6 5.6 8 21.6 0c37.6-18.4 79.2-68 79.2-68-4.8 31.2-45.6 59.2-49.6 88.8C789.69576 779.12 710.49576 818.32 514.49576 818.32h-0.8 4.8" fill="#CCAC8D" p-id="2197"></path><path d="M641.69576 359.92c7.2 24.8 32.8 108.8-16.8 80.8 0 0 20.8 12 33.6 57.6 13.6 45.6 46.4 51.2 46.4 51.2s53.6 10.4 93.6-24c33.6-28.8 39.2-80 24.8-119.2-14.4-38.4-40-50.4-77.6-58.4-37.6-8.8-112.8-16-104 12z" fill="#CCAC8D" p-id="2198"></path><path d="M736.89576 451.12m-70.4 0a70.4 70.4 0 1 0 140.8 0 70.4 70.4 0 1 0-140.8 0Z" p-id="2199"></path><path d="M718.49576 419.92m-18.4 0a18.4 18.4 0 1 0 36.8 0 18.4 18.4 0 1 0-36.8 0Z" fill="#FFFFFF" p-id="2200"></path><path d="M629.69576 447.92s63.2 43.2 97.6 85.6 33.6 50.4 33.6 50.4l-24.8 11.2s-35.2-66.4-78.4-91.2c-44-24.8-48.8-45.6-48.8-45.6z" fill="#EFCCA3" p-id="2201"></path><path d="M517.69576 422.32c-34.4 0.8-60 22.4-83.2 42.4-26.4 23.2-72.8 39.2-91.2 59.2s-43.2 40-52 71.2-12 71.2-12 81.6 1.6 11.2-21.6 0c-37.6-17.6-79.2-68-79.2-68 4.8 31.2 45.6 59.2 49.6 88.8C239.29576 779.12 318.49576 818.32 514.49576 818.32h4" fill="#CCAC8D" p-id="2202"></path><path d="M703.29576 557.52C664.89576 510.32 603.29576 466.32 517.69576 466.32h-0.8c-85.6 0-147.2 44-185.6 91.2-40 48.8-36.8 68-36.8 114.4 0 168 59.2 120 98.4 140.8 40 20 81.6 13.6 124 13.6h0.8c43.2 0 84 5.6 124-14.4 39.2-20 98.4 29.6 98.4-138.4 0.8-46.4 3.2-67.2-36.8-116z" fill="#56332B" p-id="2203"></path><path d="M513.69576 507.92s-5.6 77.6-16.8 92.8l20.8-4.8z" fill="#442823" p-id="2204"></path><path d="M519.29576 507.92s5.6 77.6 16.8 92.8l-20.8-4.8z" fill="#442823" p-id="2205"></path><path d="M452.09576 489.52c-8-18.4 20.8-48 66.4-48.8 45.6 0 74.4 29.6 66.4 48.8S548.09576 514.32 518.49576 515.12c-28.8-0.8-58.4-6.4-66.4-25.6z" fill="#56332B" p-id="2206"></path><path d="M518.49576 507.92c0-3.2 27.2-4 41.6-13.6 0 0-29.6 9.6-36 5.6-6.4-3.2-8-12.8-8-12.8s-2.4 9.6-7.2 12.8c-5.6 3.2-39.2-5.6-39.2-5.6s44.8 11.2 44.8 13.6-0.8 10.4-0.8 16c0 20 0 69.6 3.2 73.6 4.8 7.2 3.2-53.6 3.2-73.6-0.8-6.4-0.8-12.8-1.6-16z" p-id="2207"></path><path d="M520.09576 615.12c13.6 0 37.6 9.6 59.2 24.8-20.8-23.2-45.6-39.2-59.2-39.2-14.4 0-44.8 17.6-66.4 43.2 22.4-17.6 51.2-28.8 66.4-28.8z" fill="#7F4A41" p-id="2208"></path><path d="M514.49576 756.72c-30.4 0-60-9.6-87.2-16.8-5.6-1.6-11.2 2.4-16.8 0.8-50.4-16-91.2-43.2-116-77.6v8c0 168 59.2 120.8 98.4 140.8 40 20 81.6 13.6 124 13.6h0.8c43.2 0 84 5.6 124-14.4 39.2-20 98.4 28.8 98.4-139.2 0-6.4 0-12.8 0.8-18.4-23.2 37.6-65.6 67.2-118.4 84.8-4.8 1.6-16-2.4-20.8-1.6-28.8 9.6-54.4 20-87.2 20z" fill="#442823" p-id="2209"></path><path d="M438.49576 666.32s-20 60-6.4 86.4l-18.4-8s13.6-60.8 24.8-78.4zM596.89576 666.32s20 60 6.4 86.4l18.4-8s-14.4-60.8-24.8-78.4z" fill="#442823" p-id="2210"></path><path d="M387.29576 359.92c-7.2 24.8-32.8 108.8 16.8 80.8 0 0-20.8 12-33.6 57.6s-46.4 51.2-46.4 51.2-53.6 10.4-93.6-24c-33.6-28.8-39.2-80-24.8-119.2s40-50.4 77.6-58.4c37.6-8.8 112-16 104 12z" fill="#CCAC8D" p-id="2211"></path><path d="M517.69576 600.72c21.6 0 88.8 46.4 89.6 103.2v-3.2c0-59.2-54.4-106.4-89.6-106.4s-89.6 48-89.6 106.4v3.2c0.8-56.8 68-103.2 89.6-103.2z" p-id="2212"></path><path d="M525.963121 479.930768a12 6.4 75.535 1 0 12.394245-3.197293 12 6.4 75.535 1 0-12.394245 3.197293Z" fill="#331712" p-id="2213"></path><path d="M491.485375 476.476812a6.4 12 17.235 1 0 12.225249 3.792532 6.4 12 17.235 1 0-12.225249-3.792532Z" fill="#331712" p-id="2214"></path><path d="M296.09576 451.12m-70.4 0a70.4 70.4 0 1 0 140.8 0 70.4 70.4 0 1 0-140.8 0Z" p-id="2215"></path><path d="M314.49576 419.92m-18.4 0a18.4 18.4 0 1 0 36.8 0 18.4 18.4 0 1 0-36.8 0Z" fill="#FFFFFF" p-id="2216"></path><path d="M538.49576 451.92c0-0.8-18.4 8-23.2 8.8-4.8-0.8-23.2-9.6-23.2-8.8h46.4z" fill="#7F4A41" p-id="2217"></path><path d="M398.49576 447.92s-63.2 43.2-97.6 85.6-33.6 50.4-33.6 50.4l24.8 11.2s35.2-66.4 78.4-91.2 48.8-45.6 48.8-45.6z" fill="#EFCCA3" p-id="2218"></path><path d="M260.09576 319.92S238.49576 379.12 190.49576 403.92c0 0 75.2-8.8 69.6-84zM764.89576 319.92s21.6 59.2 69.6 84c0 0-75.2-8.8-69.6-84zM628.09576 430.32s-47.2-49.6-110.4-51.2h1.6c-64 1.6-110.4 51.2-110.4 51.2 55.2-38.4 102.4-37.6 110.4-37.6-0.8 0 53.6-0.8 108.8 37.6zM572.89576 326.32s-24-33.6-56-34.4h1.6c-24 0.8-55.2 34.4-55.2 34.4 27.2-26.4 55.2-25.6 55.2-25.6s26.4-0.8 54.4 25.6zM296.09576 571.92s-37.6 18.4-64.8 7.2H230.49576c-24-13.6-36-54.4-36-54.4s24 72 101.6 47.2zM734.49576 571.92s37.6 18.4 64.8 7.2c32-13.6 36.8-54.4 36.8-54.4s-24 72-101.6 47.2z" fill="#CCAC8D" p-id="2219"></path><path d="M339.29576 315.92c20.8-4 55.2-4.8 82.4 4 34.4 12 6.4 56 13.6 58.4s16.8-30.4 80.8-27.2c64.8 3.2 72 32 80.8 27.2s-8.8-80 88-62.4c0 0-101.6-27.2-96.8 46.4 0 0-58.4-44.8-140-4.8 0.8 0 21.6-68.8-108.8-41.6z" fill="#CCAC8D" p-id="2220"></path><path d="M693.69576 315.92c1.6 0 2.4 0.8 3.2 0.8s-0.8-0.8-3.2-0.8zM311.29576 217.52S224.89576 326.32 212.09576 367.92c-12.8 42.4-22.4 216-33.6 240.8l-40-171.2 73.6-178.4zM717.69576 217.52s86.4 108.8 99.2 150.4c12.8 42.4 22.4 216 33.6 240.8l40-171.2-73.6-178.4z" fill="#CCAC8D" p-id="2221"></path><path d="M713.69576 217.52s92.8 77.6 120 167.2 16 198.4 36.8 212c29.6 19.2 63.2-95.2 74.4-107.2 17.6-19.2 76-68 80-76.8s-118.4-142.4-172-168.8c-64.8-30.4-144.8-32.8-139.2-26.4z" fill="#56332B" p-id="2222"></path><path d="M792.89576 265.52s109.6 140 108 314.4l44-89.6c-0.8 0-39.2-114.4-152-224.8z" fill="#442823" p-id="2223"></path><path d="M311.29576 217.52s-92.8 77.6-120 167.2-16 198.4-36.8 212c-29.6 19.2-63.2-95.2-74.4-107.2C62.49576 470.32 4.09576 421.52 0.09576 412.72S118.49576 270.32 172.09576 243.92c64.8-30.4 144.8-32.8 139.2-26.4z" fill="#56332B" p-id="2224"></path><path d="M232.09576 265.52S122.49576 405.52 124.09576 579.92L80.89576 490.32s38.4-114.4 151.2-224.8z" fill="#442823" p-id="2225"></path><path d="M172.89576 583.12s8 43.2 20.8 56.8 4-10.4 4-10.4-13.6-7.2-11.2-62.4-13.6 16-13.6 16zM855.29576 583.12s-8 43.2-20.8 56.8-4-10.4-4-10.4 13.6-7.2 11.2-62.4 13.6 16 13.6 16z" fill="#CCAC8D" p-id="2226"></path><path d="M434.49576 550.32m-6.4 0a6.4 6.4 0 1 0 12.8 0 6.4 6.4 0 1 0-12.8 0Z" fill="#442823" p-id="2227"></path><path d="M397.69576 588.72m-6.4 0a6.4 6.4 0 1 0 12.8 0 6.4 6.4 0 1 0-12.8 0Z" fill="#442823" p-id="2228"></path><path d="M385.69576 550.32m-6.4 0a6.4 6.4 0 1 0 12.8 0 6.4 6.4 0 1 0-12.8 0Z" fill="#442823" p-id="2229"></path><path d="M590.49576 550.32m-6.4 0a6.4 6.4 0 1 0 12.8 0 6.4 6.4 0 1 0-12.8 0Z" fill="#442823" p-id="2230"></path><path d="M627.29576 588.72m-6.4 0a6.4 6.4 0 1 0 12.8 0 6.4 6.4 0 1 0-12.8 0Z" fill="#442823" p-id="2231"></path><path d="M639.29576 550.32m-6.4 0a6.4 6.4 0 1 0 12.8 0 6.4 6.4 0 1 0-12.8 0Z" fill="#442823" p-id="2232"></path></svg>